{
  "accessors": [
    {
      "name": "pCube2_1_positions",
      "componentType": 5126,
      "count": 96,
      "min": [
        -5.645826816558838,
        1.08269202709198,
        -0.1546420007944107
      ],
      "max": [
        -4.645826816558838,
        2.5398600101470947,
        0.8453580141067505
      ],
      "type": "VEC3",
      "bufferView": 0,
      "byteOffset": 0
    },
    {
      "name": "pCube2_1_normals",
      "componentType": 5126,
      "count": 96,
      "min": [
        -1,
        -1,
        -1
      ],
      "max": [
        1,
        1,
        1
      ],
      "type": "VEC3",
      "bufferView": 0,
      "byteOffset": 1152
    },
    {
      "name": "pCube2_1_texcoords",
      "componentType": 5126,
      "count": 96,
      "min": [
        0.18749399483203888,
        0.06249399855732918
      ],
      "max": [
        0.8125060200691223,
        1
      ],
      "type": "VEC2",
      "bufferView": 1,
      "byteOffset": 0
    },
    {
      "name": "pCube2_1_0_indices",
      "componentType": 5123,
      "count": 132,
      "min": [
        0
      ],
      "max": [
        95
      ],
      "type": "SCALAR",
      "bufferView": 2,
      "byteOffset": 0
    }
  ],
  "asset": {
    "generator": "obj2gltf",
    "version": "2.0"
  },
  "buffers": [
    {
      "name": "jewel",
      "byteLength": 3336,
      "uri": "data:application/octet-stream;base64,"
    }
  ],
  "bufferViews": [
    {
      "name": "bufferView_0",
      "buffer": 0,
      "byteLength": 2304,
      "byteOffset": 0,
      "byteStride": 12,
      "target": 34962
    },
    {
      "name": "bufferView_1",
      "buffer": 0,
      "byteLength": 768,
      "byteOffset": 2304,
      "byteStride": 8,
      "target": 34962
    },
    {
      "name": "bufferView_2",
      "buffer": 0,
      "byteLength": 264,
      "byteOffset": 3072,
      "target": 34963
    }
  ],
  "materials": [
    {
      "name": "initialShadingGroup",
      "pbrMetallicRoughness": {
        "baseColorFactor": [
          0.5,
          0.5,
          0.5,
          1
        ],
        "metallicFactor": 0,
        "roughnessFactor": 1
      },
      "emissiveFactor": [
        0,
        0,
        0
      ],
      "alphaMode": "OPAQUE",
      "doubleSided": false
    }
  ],
  "meshes": [
    {
      "name": "pCube2_1",
      "primitives": [
        {
          "attributes": {
            "POSITION": 0,
            "NORMAL": 1,
            "TEXCOORD_0": 2
          },
          "indices": 3,
          "material": 0,
          "mode": 4
        }
      ]
    }
  ],
  "nodes": [
    {
      "name": "pCube2",
      "mesh": 0
    }
  ],
  "scene": 0,
  "scenes": [
    {
      "nodes": [
        0
      ]
    }
  ]
}
