{
  "accessors": [
    {
      "name": "TIE_Fighter_Cube.002-Mesh_positions",
      "componentType": 5126,
      "count": 13150,
      "min": [
        -3.8891549110412598,
        -4.669474124908447,
        -5.004271984100342
      ],
      "max": [
        3.8891549110412598,
        4.669474124908447,
        5.004271984100342
      ],
      "type": "VEC3",
      "bufferView": 0,
      "byteOffset": 0
    },
    {
      "name": "TIE_Fighter_Cube.002-Mesh_normals",
      "componentType": 5126,
      "count": 13150,
      "min": [
        -1,
        -1,
        -1
      ],
      "max": [
        1,
        1,
        1
      ],
      "type": "VEC3",
      "bufferView": 0,
      "byteOffset": 157800
    },
    {
      "name": "TIE_Fighter_Cube.002-Mesh_0_indices",
      "componentType": 5123,
      "count": 21504,
      "min": [
        0
      ],
      "max": [
        8388
      ],
      "type": "SCALAR",
      "bufferView": 1,
      "byteOffset": 0
    },
    {
      "name": "TIE_Fighter_Cube.002-Mesh_1_indices",
      "componentType": 5123,
      "count": 4800,
      "min": [
        8389
      ],
      "max": [
        11580
      ],
      "type": "SCALAR",
      "bufferView": 1,
      "byteOffset": 43008
    },
    {
      "name": "TIE_Fighter_Cube.002-Mesh_2_indices",
      "componentType": 5123,
      "count": 672,
      "min": [
        11581
      ],
      "max": [
        11709
      ],
      "type": "SCALAR",
      "bufferView": 1,
      "byteOffset": 52608
    },
    {
      "name": "TIE_Fighter_Cube.002-Mesh_3_indices",
      "componentType": 5123,
      "count": 3936,
      "min": [
        11710
      ],
      "max": [
        13149
      ],
      "type": "SCALAR",
      "bufferView": 1,
      "byteOffset": 53952
    }
  ],
  "asset": {
    "generator": "obj2gltf",
    "version": "2.0"
  },
  "buffers": [
    {
      "name": "NewTieFighter",
      "byteLength": 377424,
      "uri": "data:application/octet-stream;base64,"
    }
  ],
  "bufferViews": [
    {
      "name": "bufferView_0",
      "buffer": 0,
      "byteLength": 315600,
      "byteOffset": 0,
      "byteStride": 12,
      "target": 34962
    },
    {
      "name": "bufferView_1",
      "buffer": 0,
      "byteLength": 61824,
      "byteOffset": 315600,
      "target": 34963
    }
  ],
  "materials": [
    {
      "name": "Hull",
      "pbrMetallicRoughness": {
        "baseColorFactor": [
          0.5,
          0.5,
          0.5,
          1
        ],
        "metallicFactor": 0,
        "roughnessFactor": 1
      },
      "emissiveFactor": [
        0,
        0,
        0
      ],
      "alphaMode": "OPAQUE",
      "doubleSided": false
    },
    {
      "name": "Panels",
      "pbrMetallicRoughness": {
        "baseColorFactor": [
          0.5,
          0.5,
          0.5,
          1
        ],
        "metallicFactor": 0,
        "roughnessFactor": 1
      },
      "emissiveFactor": [
        0,
        0,
        0
      ],
      "alphaMode": "OPAQUE",
      "doubleSided": false
    },
    {
      "name": "Glass",
      "pbrMetallicRoughness": {
        "baseColorFactor": [
          0.5,
          0.5,
          0.5,
          1
        ],
        "metallicFactor": 0,
        "roughnessFactor": 1
      },
      "emissiveFactor": [
        0,
        0,
        0
      ],
      "alphaMode": "OPAQUE",
      "doubleSided": false
    },
    {
      "name": "Hull02",
      "pbrMetallicRoughness": {
        "baseColorFactor": [
          0.5,
          0.5,
          0.5,
          1
        ],
        "metallicFactor": 0,
        "roughnessFactor": 1
      },
      "emissiveFactor": [
        0,
        0,
        0
      ],
      "alphaMode": "OPAQUE",
      "doubleSided": false
    }
  ],
  "meshes": [
    {
      "name": "TIE_Fighter_Cube.002-Mesh",
      "primitives": [
        {
          "attributes": {
            "POSITION": 0,
            "NORMAL": 1
          },
          "indices": 2,
          "material": 0,
          "mode": 4
        },
        {
          "attributes": {
            "POSITION": 0,
            "NORMAL": 1
          },
          "indices": 3,
          "material": 1,
          "mode": 4
        },
        {
          "attributes": {
            "POSITION": 0,
            "NORMAL": 1
          },
          "indices": 4,
          "material": 2,
          "mode": 4
        },
        {
          "attributes": {
            "POSITION": 0,
            "NORMAL": 1
          },
          "indices": 5,
          "material": 3,
          "mode": 4
        }
      ]
    }
  ],
  "nodes": [
    {
      "name": "TIE_Fighter_Cube.002",
      "mesh": 0
    }
  ],
  "scene": 0,
  "scenes": [
    {
      "nodes": [
        0
      ]
    }
  ]
}
